# AST/ASF file generated using VICON BodyLanguage
# -----------------------------------------------
:version 1.10
:name VICON
:units
  mass 1.0
  length 0.45
  angle deg
:documentation
   .ast/.asf automatically generated from VICON data using
   VICON BodyBuilder and BodyLanguage model FoxedUp or BRILLIANT.MOD
:root
   order TX TY TZ RX RY RZ
   axis XYZ
   position 0 0 0  
   orientation 0 0 0 
:bonedata
  begin
     id 1 
     name lhipjoint
     direction 0.693937 -0.600361 0.397515 
     length 2.37164 
     axis 0 0 0  XYZ
  end
  begin
     id 2 
     name lfemur
     direction 0.34202 -0.939693 0  
     length 6.18497  
     axis 0 0 20  XYZ
    dof rx ry rz
    limits (-160.0 20.0)
           (-70.0 70.0)
           (-60.0 70.0)
  end
  begin
     id 3 
     name ltibia
     direction 0.34202 -0.939693 0   
     length 6.91601   
     axis 0 0 20   XYZ
    dof rx
    limits (-10.0 170.0)
  end
  begin
     id 4 
     name lfoot
     direction 0.0978718 -0.2689 0.958182   
     length 1.81453   
     axis -90 7.62852e-016 20   XYZ
    dof rx rz
    limits (-45.0 90.0)
           (-70.0 20.0)
  end
  begin
     id 5 
     name ltoes
     direction 1.53569e-011 -4.21951e-011 1   
     length 0.912052   
     axis -90 7.62852e-016 20   XYZ
    dof rx
    limits (-90.0 20.0)
  end
  begin
     id 6 
     name rhipjoint
     direction -0.643996 -0.637876 0.422354   
     length 2.23216  
     axis 0 0 0  XYZ 
  end
  begin
     id 7 
     name rfemur
     direction -0.34202 -0.939693 0   
     length 6.15404   
     axis 0 0 -20   XYZ
    dof rx ry rz
    limits (-160.0 20.0)
           (-70.0 70.0)
           (-70.0 60.0)
  end
  begin
     id 8 
     name rtibia
     direction -0.34202 -0.939693 0   
     length 6.86744   
     axis 0 0 -20   XYZ
    dof rx
    limits (-10.0 170.0)
 end
 begin
     id 9 
     name rfoot
     direction -0.118701 -0.326127 0.937844   
     length 1.9243  
     axis -90 -7.62852e-016 -20   XYZ
    dof rx rz
    limits (-45.0 90.0)
           (-20.0 70.0)
  end
  begin
     id 10 
     name rtoes
     direction -1.5356e-011 -4.2181e-011 1   
     length 0.958865   
     axis -90 -7.62852e-016 -20   XYZ
    dof rx
    limits (-90.0 20.0)
  end
  begin
     id 11 
     name lowerback
     direction 0.0310826 0.968686 -0.246334   
     length 2.00021   
     axis 0 0 0   XYZ
    dof rx ry rz
    limits (-20.0 45.0)
           (-30.0 30.0)
           (-30.0 30.0)
  end
  begin
     id 12 
     name upperback
     direction -0.0152834 0.999474 -0.0286152   
     length 2.03728   
     axis 0 0 0   XYZ
    dof rx ry rz
    limits (-20.0 45.0)
           (-30.0 30.0)
           (-30.0 30.0)
  end
  begin
     id 13 
     name thorax
     direction -0.0323701 0.996236 0.0804149   
     length 2.16   
     axis 0 0 0   XYZ
    dof rx ry rz
    limits (-20.0 45.0)
           (-30.0 30.0)
           (-30.0 30.0)
  end
  begin
     id 14 
     name lowerneck
     direction 0.0307935 0.982251 0.185027   
     length 1.43558   
     axis 0 0 0   XYZ
    dof rx ry rz
    limits (-20.0 45.0)
           (-30.0 30.0)
           (-30.0 30.0)
  end
  begin
     id 15 
     name upperneck
     direction -0.0927153 0.994775 0.0427454   
     length 1.44603   
     axis 0 0 0   XYZ
    dof rx ry rz
    limits (-20.0 45.0)
           (-30.0 30.0)
           (-30.0 30.0)
  end
  begin
     id 16
     name head
     direction -0.0341265 0.999406 -0.00472033  
     length 1.45931  
     axis 0 0 0   XYZ
    dof rx ry rz
    limits (-20.0 45.0)
           (-30.0 30.0)
           (-30.0 30.0)
  end
  begin
     id 17 
     name lclavicle
     direction 0.820755 0.555306 -0.134151  
     length 2.66075  
     axis 0 0 0   XYZ
    dof ry rz
    limits (-20.0 10.0)
           (0.0 20.0)
  end
  begin
     id 18 
     name lhumerus
     direction 1 -4.48971e-011 5.24853e-027   
     length 5.0546   
     axis -180 -30 -90   XYZ
    dof rx ry rz
    limits (-60.0 90.0)
           (-90.0 90.0)
           (-90.0 90.0)
  end
  begin
     id 19
     name lradius
     direction 1 -4.48971e-011 2.76575e-028   
     length 3.39013   
     axis -180 -30 -90   XYZ
    dof rx
    limits (-10.0 170.0)
  end
  begin
     id 20
     name lwrist
     direction 1 -4.48939e-011 -2.27826e-027   
     length 1.69507   
     axis 2.17013e-015 90 90   XYZ
    dof ry
    limits (-180.0 0.0)
 end
  begin
     id 21 
     name lhand
     direction 1 -4.49009e-011 -4.55652e-027   
     length 0.572425   
     axis 2.90745e-015 90 90   XYZ
    dof rx rz
    limits (-90.0 90.0)
           (-45.0 45.0)
  end
  begin
     id 22 
     name lfingers
     direction 1 -4.48955e-011 -9.11303e-027   
     length 0.461504   
     axis 5.81489e-015 90 90   XYZ
    dof rx
    limits (0.0 90.0)
  end
  begin
     id 23
     name lthumb
     direction 0.707107 -6.34929e-011 0.707107   
     length 0.66263   
     axis -90 45 2.85299e-015   XYZ
    dof rx rz
    limits (-45.0 45.0)
           (-45.0 45.0)
  end
  begin
     id 24 
     name rclavicle
     direction -0.754477 0.632921 -0.173712   
     length 2.73081  
     axis 0 0 0   XYZ 
    dof ry rz
    limits (-10.0 20.0)
           (-20.0 0.0)
  end
  begin
     id 25 
     name rhumerus
     direction -1 -4.48969e-011 5.1496e-027  
     length 5.0701   
     axis -180 30 90   XYZ
    dof rx ry rz
    limits (-90.0 60.0)
           (-90.0 90.0)
           (-90.0 90.0)
  end
  begin
     id 26 
     name rradius
     direction -1 -4.48967e-011 -7.15624e-028   
     length 3.14957   
     axis -180 30 90   XYZ
    dof rx
    limits (-10.0 170.0)
  end
  begin
     id 27 
     name rwrist
     direction -1 -4.48938e-011 -2.27826e-027   
     length 1.57479   
     axis 2.17013e-015 -90 -90   XYZ
    dof ry
    limits (-180.0 0.0)
  end
  begin
     id 28
     name rhand
     direction -1 -4.49008e-011 -4.55652e-027   
     length 0.718191   
     axis 2.90745e-015 -90 -90   XYZ
    dof rx rz
    limits (-90.0 90.0)
           (-45.0 45.0)
  end
  begin
     id 29
     name rfingers
     direction -1 -4.48953e-011 -9.11303e-027   
     length 0.579024   
     axis 5.81489e-015 -90 -90   XYZ
    dof rx
    limits (0.0 90.0)
  end
  begin
     id 30
     name rthumb
     direction -0.707107 -6.34937e-011 0.707107   
     length 0.831366   
     axis -90 -45 -2.85299e-015   XYZ
    dof rx rz
    limits (-45.0 45.0)
           (-45.0 45.0)
  end
:hierarchy
  begin
    root lhipjoint rhipjoint lowerback
    lhipjoint lfemur
    lfemur ltibia
    ltibia lfoot
    lfoot ltoes
    rhipjoint rfemur
    rfemur rtibia
    rtibia rfoot
    rfoot rtoes
    lowerback upperback
    upperback thorax
    thorax lowerneck lclavicle rclavicle
    lowerneck upperneck
    upperneck head
    lclavicle lhumerus
    lhumerus lradius
    lradius lwrist
    lwrist lhand lthumb
    lhand lfingers
    rclavicle rhumerus
    rhumerus rradius
    rradius rwrist
    rwrist rhand rthumb
    rhand rfingers
  end

#!OML:ASF H:\Male1\Project 1\Capture day 1\Session 1\Male1.ASF
:FULLY-SPECIFIED
:DEGREES
124
root 16.5959 15.483 -0.629481 176.002 -80.0554 -178.49
lowerback 1.83509 1.46188 -0.713182
upperback 1.81352 1.9128 -2.04256
thorax 0.876079 0.945164 -1.71258
lowerneck -7.63669 4.25382 6.31131
upperneck 11.5919 5.2145 -2.66933
head 4.97513 2.63812 -1.50691
rclavicle -1.69712e-014 1.98785e-014
rhumerus -35.0549 7.42984 -90.0061
rradius 32.6912
rwrist -17.6136
rhand -15.6908 3.17955
rfingers 7.12502
rthumb 10.4985 -26.5383
lclavicle -1.69712e-014 1.98785e-014
lhumerus 20.4069 14.1048 44.2063
lradius 100.271
lwrist 10.7592
lhand -48.6387 3.65869
lfingers 7.12502
lthumb -21.282 32.5102
rfemur 0.515246 17.6779 24.1768
rtibia 19.743
rfoot -33.0574 -33.1107
rtoes -11.3935
lfemur 1.80367 -17.8166 -22.3843
ltibia 20.4305
lfoot -27.8072 30.663
ltoes 5.51185
125
root 16.5948 15.4836 -0.630167 175.465 -80.0935 -177.941
lowerback 1.83461 1.4454 -0.625614
upperback 1.81188 1.89253 -2.01198
thorax 0.875948 0.936204 -1.73003
lowerneck -7.64329 4.2526 6.33181
upperneck 11.647 5.21243 -2.69142
head 4.99433 2.63657 -1.5167
rclavicle 1.21259e-014 -4.21423e-014
rhumerus -35.0316 7.44884 -89.9936
rradius 32.5485
rwrist -17.5781
rhand -15.691 3.27809
rfingers 7.12502
rthumb 10.4983 -26.4398
lclavicle 1.21259e-014 -4.21423e-014
lhumerus 20.5667 14.35 44.657
lradius 100.543
lwrist 13.1193
lhand -48.7122 7.34225
lfingers 7.12502
lthumb -21.3526 36.1858
rfemur 0.58019 17.6876 24.2874
rtibia 19.6282
rfoot -33.0625 -33.1562
rtoes -11.2898
lfemur 1.74763 -17.8214 -22.272
ltibia 20.5187
lfoot -27.8204 30.6166
ltoes 5.46794
126
root 16.5935 15.4839 -0.630618 175.026 -80.1453 -177.491
lowerback 1.83304 1.42268 -0.549486
upperback 1.80942 1.86372 -1.98691
thorax 0.875147 0.922819 -1.74667
lowerneck -7.67121 4.27109 6.33559
upperneck 11.7254 5.23495 -2.6909
head 5.02447 2.64763 -1.51441
rclavicle -2.07233e-014 1.66979e-014
rhumerus -35.0064 7.47637 -89.9793
rradius 32.3998
rwrist -17.5379
rhand -15.6816 3.34666
rfingers 7.12502
rthumb 10.5073 -26.3707
lclavicle -2.07233e-014 1.66979e-014
lhumerus 20.69 14.5817 45.0606
lradius 100.729
lwrist 14.5074
lhand -48.8521 10.5297
lfingers 7.12502
lthumb -21.487 39.358
rfemur 0.637492 17.6708 24.3734
rtibia 19.5324
rfoot -33.0611 -33.1939
rtoes -11.2229
lfemur 1.69977 -17.832 -22.1821
ltibia 20.5922
lfoot -27.8201 30.5678
ltoes 5.39401
127
root 16.5922 15.4839 -0.631009 174.795 -80.2062 -177.254
lowerback 1.83228 1.39929 -0.500682
upperback 1.80556 1.83344 -1.97538
thorax 0.871962 0.908337 -1.76191
lowerneck -7.69829 4.30001 6.33344
upperneck 11.7943 5.27221 -2.68844
head 5.05198 2.66578 -1.50955
rclavicle -2.14936e-014 1.11319e-014
rhumerus -34.9873 7.49991 -89.9638
rradius 32.2633
rwrist -17.5073
rhand -15.6755 3.3816
rfingers 7.12502
rthumb 10.5132 -26.3355
lclavicle -2.14936e-014 1.11319e-014
lhumerus 20.7646 14.7442 45.3624
lradius 100.805
lwrist 14.8323
lhand -49.0441 12.9269
lfingers 7.12502
lthumb -21.6714 41.7341
rfemur 0.67787 17.6354 24.4158
rtibia 19.4759
rfoot -33.0628 -33.2169
rtoes -11.1908
lfemur 1.67078 -17.8512 -22.1367
ltibia 20.6347
lfoot -27.8058 30.5296
ltoes 5.3045
128
root 16.5908 15.4836 -0.631381 174.861 -80.2705 -177.319
lowerback 1.8271 1.37737 -0.495941
upperback 1.80488 1.80439 -1.97897
thorax 0.873631 0.893898 -1.76785
lowerneck -7.71558 4.3244 6.3037
upperneck 11.8431 5.30659 -2.67844
head 5.07049 2.68182 -1.49846
rclavicle -4.22417e-014 2.62396e-014
rhumerus -34.971 7.51524 -89.9413
rradius 32.1544
rwrist -17.4871
rhand -15.6676 3.36657
rfingers 7.12502
rthumb 10.5208 -26.3501
lclavicle -4.22417e-014 2.62396e-014
lhumerus 20.7847 14.8102 45.5245
lradius 100.761
lwrist 14.1471
lhand -49.3115 14.2845
lfingers 7.12502
lthumb -21.9281 43.0617
rfemur 0.695683 17.5838 24.3986
rtibia 19.4683
rfoot -33.0829 -33.2087
rtoes -11.1426
lfemur 1.66595 -17.8809 -22.1529
ltibia 20.638
lfoot -27.7775 30.5134
ltoes 5.20368
129
root 16.5892 15.483 -0.631739 175.162 -80.3291 -177.624
lowerback 1.81815 1.35822 -0.52722
upperback 1.81003 1.7785 -1.99293
thorax 0.88271 0.880563 -1.76412
lowerneck -7.73084 4.34726 6.26035
upperneck 11.8722 5.34145 -2.67258
head 5.08227 2.69725 -1.48662
rclavicle 8.89561e-015 -1.03368e-014
rhumerus -34.9525 7.51653 -89.909
rradius 32.0768
rwrist -17.4651
rhand -15.6516 3.29603
rfingers 7.12502
rthumb 10.5362 -26.4199
lclavicle 8.89561e-015 -1.03368e-014
lhumerus 20.7501 14.7789 45.5329
lradius 100.61
lwrist 12.6372
lhand -49.6339 14.4766
lfingers 7.12502
lthumb -22.2376 43.2173
rfemur 0.694059 17.527 24.3368
rtibia 19.5062
rfoot -33.1213 -33.1766
rtoes -11.0865
lfemur 1.68769 -17.9212 -22.2188
ltibia 20.6043
lfoot -27.7449 30.5218
ltoes 5.11548
130
root 16.5875 15.4822 -0.63207 175.55 -80.3766 -178.022
lowerback 1.80739 1.34454 -0.571567
upperback 1.81912 1.7597 -2.01188
thorax 0.896809 0.870585 -1.75816
lowerneck -7.73492 4.36207 6.21652
upperneck 11.8774 5.36719 -2.67402
head 5.08447 2.70781 -1.47803
rclavicle 1.33434e-014 2.38542e-015
rhumerus -34.938 7.49541 -89.8697
rradius 32.0297
rwrist -17.4365
rhand -15.634 3.17858
rfingers 7.12502
rthumb 10.5532 -26.5365
lclavicle 1.33434e-014 2.38542e-015
lhumerus 20.6751 14.6643 45.4112
lradius 100.381
lwrist 10.5664
lhand -49.9587 13.4464
lfingers 7.12502
lthumb -22.5494 42.1495
rfemur 0.679355 17.4739 24.2596
rtibia 19.5753
rfoot -33.1717 -33.1349
rtoes -11.0557
lfemur 1.72907 -17.9655 -22.3046
ltibia 20.5454
lfoot -27.7163 30.544
ltoes 5.06526
